<?xml version="1.0" encoding="UTF-8" standalone="no"?>
<!-- Created with Inkscape (http://www.inkscape.org/) -->

<svg
   width="210mm"
   height="297mm"
   viewBox="0 0 210 297"
   version="1.1"
   id="svg1"
   inkscape:version="1.4.2 (f4327f4, 2025-05-13)"
   sodipodi:docname="portal_3d.svg"
   xmlns:inkscape="http://www.inkscape.org/namespaces/inkscape"
   xmlns:sodipodi="http://sodipodi.sourceforge.net/DTD/sodipodi-0.dtd"
   xmlns="http://www.w3.org/2000/svg"
   xmlns:svg="http://www.w3.org/2000/svg">
  <sodipodi:namedview
     id="namedview1"
     pagecolor="#505050"
     bordercolor="#eeeeee"
     borderopacity="1"
     inkscape:showpageshadow="0"
     inkscape:pageopacity="0"
     inkscape:pagecheckerboard="0"
     inkscape:deskcolor="#505050"
     inkscape:document-units="mm"
     inkscape:zoom="0.57549102"
     inkscape:cx="397.05224"
     inkscape:cy="561.25984"
     inkscape:window-width="1440"
     inkscape:window-height="890"
     inkscape:window-x="-6"
     inkscape:window-y="-6"
     inkscape:window-maximized="1"
     inkscape:current-layer="layer1" />
  <defs
     id="defs1" />
  <g
     inkscape:label="Layer 1"
     inkscape:groupmode="layer"
     id="layer1">
    <path
       id="path1"
       style="fill:#ffcc00;stroke-width:0.403358"
       d="M 107.12257,5.9768813 A 102.98446,145.28174 0 0 0 4.1375366,151.2586 102.98446,145.28174 0 0 0 107.12257,296.54033 102.98446,145.28174 0 0 0 200.38166,212.88701 l -12.92418,-5.26311 c 5.44189,-36.16538 1.89014,-75.45572 -9.9945,-107.06126 C 155.01225,40.858113 105.68415,18.750121 69.164144,56.348456 36.821428,89.646132 24.886806,162.28927 45.563565,215.73349 63.612786,262.38614 102.65859,279.51872 131.15165,249.14127 155.57115,223.10689 164.49,167.36284 148.2228,127.12375 134.61459,93.461899 105.83539,81.265144 85.38165,104.34982 c -16.548394,18.67701 -22.484086,57.55614 -10.694933,84.5601 9.078974,20.79606 27.603713,28.15405 39.989833,12.55365 8.79333,-11.07532 11.86717,-33.11467 4.77921,-46.81 -2.1293,-4.11422 -5.6916,-7.25211 -8.93126,-7.93781 -3.23964,-0.6857 -5.73291,0.41459 -7.86292,4.04964 -0.63086,1.07665 -1.54297,4.45047 -1.58521,6.35274 -0.0165,0.74283 -0.0649,1.05917 -0.0943,1.19064 0.0633,0.0584 0.12931,0.11931 0.19868,0.18283 -0.15221,-0.13926 -0.21001,-0.0958 -0.22056,-0.0936 h -8.5e-4 l -8.5e-4,-7.5e-4 v -7.4e-4 -7.2e-4 c 0.001,-0.007 0.0107,-0.0293 0.0236,-0.087 -2.268507,-2.09403 -0.70334,-0.97315 -1.484181,-0.5345 -0.401311,0.22534 -1.758766,0.90944 -2.91788,4.41382 -1.159125,3.50439 -0.582431,8.47459 -0.2273,9.55384 l 15.682931,-13.94702 c 1.55137,4.7146 2.12622,12.62139 0.21467,18.40066 -1.91156,5.77924 -4.77397,8.07673 -6.99077,9.32159 -4.43359,2.48967 -7.626536,3.28795 -12.752427,-1.4037 -6.563359,-6.00728 -9.475695,-18.21947 -9.257045,-28.0658 0.218667,-9.84631 2.483077,-18.65311 6.566474,-25.62185 6.302687,-10.75618 15.161668,-14.44138 22.986878,-12.78513 7.82518,1.65624 15.04709,7.99442 20.234,18.01656 14.38567,27.79601 8.76661,68.58055 -7.51273,89.08451 C 104.49288,251.23154 74.801561,239.46335 60.195857,206.00787 42.180259,164.74176 50.885412,107.71513 75.288644,80.17294 104.43281,47.27997 144.1708,64.128359 163.07651,110.89426 185.12584,165.43632 173.33696,239.11528 140.8574,273.74281 103.65828,313.40201 53.734806,291.49852 30.513714,231.47786 4.2965212,163.71306 19.166744,73.223149 59.698319,31.494793 76.661048,14.031208 95.722483,6.9086262 114.376,8.6906437 c 31.08919,2.9700213 61.0455,30.6717143 78.25974,76.4505213 11.03295,29.340585 16.11428,63.644095 15.01449,97.661505 A 102.98446,145.28174 0 0 0 210.10676,151.2586 102.98446,145.28174 0 0 0 107.12257,5.9768813 Z M 207.65023,182.80267 a 102.98446,145.28174 0 0 1 -7.26857,30.08434 l 4.38605,1.78633 c 1.57785,-10.48601 2.53638,-21.16436 2.88252,-31.87067 z" />
  </g>
</svg>
