<?xml version="1.0" encoding="UTF-8" standalone="no"?>
<!-- Created with Inkscape (http://www.inkscape.org/) -->

<svg
   width="210mm"
   height="210mm"
   viewBox="0 0 210 210"
   version="1.1"
   id="svg1"
   inkscape:version="1.4.2 (f4327f4, 2025-05-13)"
   sodipodi:docname="PsudoCamera.svg"
   xmlns:inkscape="http://www.inkscape.org/namespaces/inkscape"
   xmlns:sodipodi="http://sodipodi.sourceforge.net/DTD/sodipodi-0.dtd"
   xmlns="http://www.w3.org/2000/svg"
   xmlns:svg="http://www.w3.org/2000/svg">
  <sodipodi:namedview
     id="namedview1"
     pagecolor="#505050"
     bordercolor="#eeeeee"
     borderopacity="1"
     inkscape:showpageshadow="0"
     inkscape:pageopacity="0"
     inkscape:pagecheckerboard="0"
     inkscape:deskcolor="#505050"
     inkscape:document-units="mm"
     inkscape:zoom="0.4069336"
     inkscape:cx="271.54307"
     inkscape:cy="690.53034"
     inkscape:window-width="1440"
     inkscape:window-height="890"
     inkscape:window-x="-6"
     inkscape:window-y="-6"
     inkscape:window-maximized="1"
     inkscape:current-layer="layer1" />
  <defs
     id="defs1" />
  <g
     inkscape:label="Layer 1"
     inkscape:groupmode="layer"
     id="layer1">
    <path
       id="path8"
       style="fill:#fc7f7f;stroke:#fc7f7f;stroke-width:7.99999"
       d="M 107.60635 9.7528931 A 95.252533 95.252533 0 0 0 12.353768 105.00548 A 95.252533 95.252533 0 0 0 107.60635 200.25806 A 95.252533 95.252533 0 0 0 202.85842 105.00548 A 95.252533 95.252533 0 0 0 107.60635 9.7528931 z M 106.6307 80.623503 A 50.064476 50.064476 0 0 1 156.69535 130.68763 A 50.064476 50.064476 0 0 1 106.6307 180.75227 A 50.064476 50.064476 0 0 1 56.566573 130.68763 A 50.064476 50.064476 0 0 1 106.6307 80.623503 z " />
  </g>
</svg>
