<svg width="16" height="16"><path transform="matrix(.86491 0 0 1.054 2.8913 -1.8327)" d="m12.903 2.6875c-0.11782 0.0055474-0.24003 0.043188-0.36809 0.11304l-2.353 1.2823c-0.91642 0.49987-1.6824 2.3243-1.6824 4.06v4.7142c0 1.7358 0.76593 2.5863 1.6824 1.9198l2.353-1.7104c0.81955-0.59603 1.4656-2.345 1.4656-3.9229v-4.2861c0-1.3314-0.46123-2.1999-1.0975-2.1699zm-12.215 2.0717c-1.5873 0-2.8747 1.4329-2.8747 3.2021v4.805c1e-7 1.7692 1.2874 3.2039 2.8747 3.2039h4.3109c1.5873 0 2.8724-1.4348 2.8724-3.2039v-4.805c0-1.7692-1.2851-3.2021-2.8724-3.2021h-4.3109zm12.352 1.4417c0.1306 0.010629 0.23711 0.17369 0.23711 0.53553v1.4472c0 0.96491-0.74295 1.4614-0.74295 0.48365v-1.4676c0-0.61111 0.28816-1.0165 0.50584-0.9988zm-3.1208 1.9086c0.14562 0.0064721 0.26195 0.17583 0.26195 0.55777v1.5269c0 1.0185-0.82876 1.5702-0.82876 0.53738v-1.5492c0-0.64554 0.3241-1.0837 0.56681-1.0729zm-9.9496 0.65413c0.35925 0 0.71825 0.26679 0.71811 0.80052v1.601c-2.8898e-4 1.0675-1.4388 1.0675-1.4385 0v-1.601c1.4449e-4 -0.53373 0.36111-0.80052 0.72036-0.80052zm5.7471 0c0.35925 0 0.71819 0.26672 0.71811 0.80052v1.601c-1.669e-4 1.0676-1.4364 1.0676-1.4362 0v-1.601c8.34e-5 -0.5338 0.35885-0.80052 0.71811-0.80052zm6.5668 1.6474c0.24768-0.040164 0.41988 0.47118 0.18517 1.1081-0.59556 1.5749-1.5879 2.2895-2.2175 1.551-0.37331-0.46273 0.18996-1.9019 0.56907-1.4676 0.31044 0.37546 0.80686 0.033056 1.1088-0.75419 0.11254-0.28612 0.24196-0.41906 0.35454-0.43732zm-10.993 2.4497c0.17809-0.013017 0.36589 0.054931 0.53519 0.23719 0.56115 0.62527 1.4712 0.62527 2.0324 0 0.67721-0.72902 1.6703 0.3774 1.0162 1.1322-1.1223 1.2505-2.9424 1.2505-4.0648 0-0.49057-0.56611-0.053279-1.3304 0.481-1.3694z" fill="#fc7f7f"/></svg>
